<svg width="401" height="511" viewBox="0 0 401 511" fill="none" xmlns="http://www.w3.org/2000/svg">
<path d="M180.257 0H263.925V383.478C221.068 391.584 189.519 394.773 155.383 394.773C53.1942 394.667 0 349.014 0 261.333C0 176.854 56.4245 122.026 143.861 122.026C157.429 122.026 167.766 123.094 180.257 126.293V0ZM183.189 195.4C173.389 192.2 165.314 191.133 154.976 191.133C112.659 191.133 88.2156 216.946 88.2156 262.183C88.2156 306.226 111.583 330.546 154.439 330.546C163.698 330.546 171.236 330.024 183.189 328.424V195.4Z" fill="#2BA977"/>
<path d="M400.746 132.322V324.324C400.746 390.445 395.793 422.243 381.255 449.657C367.687 476.013 349.813 492.633 312.879 510.989L235.241 474.404C272.175 457.239 290.05 442.072 301.465 418.926C313.416 395.257 317.185 367.843 317.185 295.736V132.323L400.746 132.322ZM308.753 0H392.421V85.0136H308.753V0Z" fill="#2BA977"/>
</svg>
