<svg width="512" height="512" viewBox="0 0 512 512" fill="none" xmlns="http://www.w3.org/2000/svg">
<path d="M256 106.667C226.465 106.667 197.593 115.425 173.035 131.834C148.477 148.243 129.337 171.566 118.034 198.853C106.731 226.14 103.774 256.166 109.536 285.134C115.298 314.101 129.521 340.71 150.405 361.595C171.29 382.479 197.899 396.702 226.867 402.464C255.834 408.226 285.86 405.269 313.147 393.966C340.435 382.663 363.757 363.523 380.166 338.965C396.575 314.407 405.333 285.535 405.333 256C405.333 216.394 389.6 178.411 361.595 150.405C333.589 122.4 295.606 106.667 256 106.667ZM256 362.667C234.903 362.667 214.28 356.411 196.739 344.69C179.198 332.969 165.526 316.31 157.453 296.82C149.38 277.329 147.267 255.882 151.383 235.19C155.499 214.499 165.658 195.493 180.575 180.575C195.493 165.658 214.499 155.499 235.19 151.383C255.882 147.267 277.329 149.38 296.82 157.453C316.31 165.526 332.969 179.198 344.69 196.739C356.411 214.28 362.667 234.903 362.667 256C362.667 284.29 351.429 311.421 331.425 331.425C311.421 351.429 284.29 362.667 256 362.667ZM256 192C243.342 192 230.968 195.754 220.444 202.786C209.919 209.818 201.716 219.814 196.872 231.508C192.028 243.203 190.76 256.071 193.23 268.486C195.699 280.901 201.795 292.304 210.745 301.255C219.696 310.205 231.099 316.301 243.514 318.77C255.929 321.24 268.797 319.972 280.492 315.128C292.186 310.284 302.182 302.081 309.214 291.557C316.246 281.032 320 268.658 320 256C320 239.026 313.257 222.748 301.255 210.745C289.253 198.743 272.974 192 256 192ZM256 277.333C251.781 277.333 247.656 276.082 244.148 273.738C240.64 271.394 237.905 268.062 236.291 264.164C234.676 260.266 234.253 255.976 235.077 251.838C235.9 247.7 237.932 243.899 240.915 240.915C243.899 237.932 247.7 235.9 251.838 235.077C255.976 234.253 260.266 234.676 264.164 236.291C268.062 237.905 271.394 240.64 273.738 244.148C276.082 247.656 277.333 251.781 277.333 256C277.333 261.658 275.086 267.084 271.085 271.085C267.084 275.086 261.658 277.333 256 277.333ZM256 21.3334C209.587 21.3334 164.217 35.0963 125.626 60.8818C87.0355 86.6673 56.9577 123.317 39.1963 166.197C21.4349 209.077 16.7877 256.26 25.8424 301.781C34.8971 347.302 57.2469 389.116 90.0656 421.934C122.884 454.753 164.698 477.103 210.219 486.158C255.74 495.212 302.923 490.565 345.803 472.804C388.683 455.042 425.333 424.965 451.118 386.374C476.904 347.783 490.667 302.413 490.667 256C490.667 193.763 465.943 134.074 421.934 90.0656C377.926 46.0571 318.237 21.3334 256 21.3334ZM256 448C218.026 448 180.905 436.739 149.331 415.642C117.756 394.545 93.1472 364.559 78.6152 329.475C64.0831 294.392 60.2809 255.787 67.6893 218.543C75.0976 181.298 93.3838 147.087 120.236 120.236C147.087 93.3838 181.298 75.0976 218.543 67.6893C255.787 60.2809 294.392 64.0831 329.475 78.6152C364.559 93.1472 394.545 117.756 415.642 149.331C436.739 180.905 448 218.026 448 256C448 306.922 427.772 355.758 391.765 391.765C355.758 427.771 306.922 448 256 448Z" fill="black"/>
</svg>
