<svg width="399" height="512" viewBox="0 0 399 512" fill="none" xmlns="http://www.w3.org/2000/svg">
<path d="M119.036 316.413C103.865 304.479 87.6781 293.042 76.6196 276.927C53.3403 248.508 35.4214 215.613 23.171 181.038C15.7644 158.554 13.2281 134.45 3.67429 112.839C-6.3059 97.1373 5.39367 79.9855 22.5906 74.997C30.2414 73.5219 43.7024 66.2989 27.4531 71.4679C12.8827 82.1514 11.4792 61.7585 26.4168 60.467C36.6117 59.1149 40.3648 50.7731 36.8747 43.2639C25.9266 36.1218 63.4122 28.2858 44.5489 17.6319C24.9121 -3.56083 72.0278 -7.64066 60.4014 16.4322C57.6224 34.9408 93.3357 13.0324 85.0422 34.4102C93.4679 44.6783 116.585 36.752 116.005 51.1481C128.276 51.9915 132.488 62.3093 143.994 63.1029C155.94 68.496 177.573 72.7376 181.631 86.1893C169.79 95.561 142.378 66.828 141.054 92.7743C144.635 131.111 143.722 170.601 157.743 207.106C164.375 229.207 180.461 246.605 194.98 263.822C208.88 280.68 227.703 292.555 246.893 302.546C263.721 310.482 281.864 315.741 300.209 319.049C307.647 313.361 320.781 292.208 332.379 301.121C332.939 311.156 309.357 322.082 331.273 320.973C344.154 317.086 353.077 330.922 363.678 318.438C373.447 330.008 404.274 311.052 397.327 334.698C387.925 340.763 374.22 337.099 364.809 345.444C349.293 337.69 336.938 352.373 319.754 350.521C300.677 353.938 281.262 355.313 261.922 355.342C230.186 352.838 197.781 351.781 167.591 340.731C150.579 335.789 133.985 326.101 119.036 316.413ZM145.837 328.034C162.442 335.207 178.682 342.777 196.884 345.066C225.761 349.075 255.581 355.261 284.559 349.625C271.445 343.704 257.881 351.925 244.817 345.392C229.148 348.76 212.331 344.527 196.394 342.441C178.282 334.374 158.73 328.829 141.768 318.346C120.563 310.605 152.727 328.278 158.454 329.714C171.702 337.23 143.882 325.855 139.953 322.732C128.856 316.505 127.443 317.808 138.858 324.127C141.156 325.471 143.426 326.885 145.837 328.034ZM114.234 305.7C130.331 311.663 114.163 294.385 106.797 295.384C103.529 289.716 94.3128 286.134 100.814 283.092C89.1236 287.153 88.5634 267.656 83.0707 270.446C70.6974 266.539 78.2565 252.7 63.5134 244.196C62.169 235.24 48.8714 227.477 44.6391 213.974C42.7672 207.056 29.6113 187.206 37.69 205.681C44.5675 223.466 56.6654 238.71 66.739 253.921C74.5532 268.408 83.7927 283.56 98.027 292.596C102.83 297.205 107.459 304.255 114.234 305.7ZM67.8795 254.796C70.8204 260.055 68.4366 252.364 67.8795 254.796ZM133.516 312.842C137.076 311.246 128.388 310.829 133.516 312.842ZM142.245 316.029C141.341 311.632 138.257 318.491 142.245 316.029ZM153.184 320.588C158.383 315.629 145.155 317.461 153.184 320.588ZM171.926 331.034C175.089 326.364 161.801 329.275 171.926 331.034ZM135.939 305.946C144.015 300.715 125.489 305.873 135.939 305.946ZM144.139 310.035C143.904 307.277 141.218 311.276 144.139 310.035ZM185.132 335.624C191.725 339.786 223.624 344.74 203.651 337.332C200.301 338.036 166.614 327.799 185.132 335.624ZM120.055 284.934C119.414 282.169 109.817 281.872 120.055 284.934ZM139.132 296.067C144.106 292.597 128.825 293.391 139.132 296.067ZM155.187 305.906C162.319 303.22 143.63 303.209 155.187 305.906ZM112.282 276.479C120.015 282.409 143.479 277.241 124.124 272.939C115.324 268.247 95.483 265.034 109.008 275.768L112.282 276.479ZM166.066 309.303C169.29 303.818 152.552 306.167 166.066 309.303ZM149.724 296.318C168.629 301.661 133.821 284.352 145.056 294.345L147.55 295.474L149.724 296.318ZM182.49 315.254C200.396 315.425 166.311 312.783 182.49 315.254ZM105.395 266.119C104.691 262.783 100.979 266.396 105.395 266.119ZM212.779 332.246C213.257 326.224 206.938 336.733 212.779 332.246ZM135.959 284.831C134.87 281.657 130.364 284.699 135.959 284.831ZM107.092 264.025C117.371 263.405 93.0105 259.497 107.092 264.025ZM72.8945 241.923C71.6139 236.991 61.7131 233.063 72.8945 241.923ZM162.668 298.894C161.781 299.361 160.785 296.746 162.668 298.894ZM218.536 333.184C218.365 329.896 215.494 334.423 218.536 333.184ZM157.723 293.786C158.731 289.554 148.953 292.502 157.723 293.786ZM116.097 267.403C123.749 266.587 103.836 262.234 116.097 267.403ZM186.509 311.156C198.433 306.433 174.889 308.854 186.509 311.156ZM149.888 286.299C163.623 288.066 133.538 276.947 146.867 285.3L149.888 286.299ZM197.627 315.651C210.459 307.991 206.227 333.61 219.393 317.819C232.375 308.336 208.179 329.54 224.175 319.508C235.753 311.764 252.846 323.181 263.643 326.895C271.404 326.518 278.956 333.61 286.921 329.294C302.244 325.163 256.948 323.171 268.82 315.853C254.8 319.936 244.443 310.991 237.544 302.006C221.813 298.373 203.631 290.336 195.776 276.407C192.571 271.188 200.398 277.151 193.01 268.604C183.537 260.178 178.807 250.602 172.446 240.358C164.845 236.307 163.95 224.373 163.186 239.963C163.248 230.122 154.009 223.498 151.749 226.246C151.709 216.772 161.641 221.524 154.69 214.514C153.197 204.694 148.27 194.46 146.794 183.369C144.497 178.027 146.467 166.582 138.94 178.678C136.202 191.468 138.035 162.969 142.298 172.361C147.894 162.776 140.282 163.904 139.977 165.228C143.621 157.14 142.287 145.661 139.021 150.037C140.965 141.458 142.094 118.475 136.123 122.555C139.743 113.581 142.991 81.5073 127.258 93.7405C120.889 93.8308 109.851 96.0512 104.642 98.645C120.992 107.661 102.992 101.9 96.3279 100.466C95.4627 108.809 88.87 105.207 80.6278 105.288C93.7947 106.915 74.2171 118.747 66.6798 114.151C56.8708 118.831 75.1351 130.532 66.8728 134.153C67.892 139.597 51.8543 132.182 53.1069 144.777C43.5919 140.766 51.8045 159.713 56.5658 153.304C72.7545 157.689 67.962 167.671 68.3681 177.162C65.7322 182.686 55.3444 164.17 66.0574 165.026C57.6021 151.297 56.709 160.059 49.6868 166.438C48.0592 166.897 67.5948 175.513 55.335 179.767C66.1197 181.437 66.4355 190.879 68.6342 196.852C75.1149 203.605 73.7799 189.391 81.5459 197.513C76.6289 190.278 55.5373 177.13 72.5211 181.346C72.4277 174.071 69.4464 168.198 74.6559 168.34C79.8156 159.01 69.2535 191.356 80.8737 179.493C84.0868 178.09 84.8928 170.153 90.6718 180.246C99.0649 188.509 93.7044 194.488 81.8602 186.92C83.9763 194.113 97.7018 196.676 95.1173 207.921C97.8527 217.811 101.68 214.167 105.017 213.598C107.631 223.203 109.12 216.142 109.241 211.562C121.216 214.13 118.408 221.21 122.161 226.155C130.412 229.877 110.349 200.91 124.513 217.444C139.417 230.905 130.109 236.521 116.73 234.366C125.195 233.681 127.919 245.813 138.514 245.385C148.169 249.983 154.712 267.627 138.066 260.279C132.296 255.07 111.854 248.65 128.553 258.551C143.957 265.693 156.207 269.956 171.072 278.922C181.706 286.512 186.302 295.208 190.332 296.931C181.39 301.202 163.391 293.522 176.759 291.172C168.416 289.655 159.036 285.434 167.022 295.821C173.818 301.499 191.085 300.897 194.189 301.538C191.564 307.319 187.058 307.778 194.291 308.224C186.221 312.528 196.884 313.2 197.627 315.651ZM181.124 269.041C176.21 263.903 174.939 254.289 180.249 262.649C182.977 263.749 188.971 278.372 181.124 269.041ZM234.879 303.187C237.941 302.985 234.969 305.515 234.879 303.187ZM173.373 256.445C175.141 262.436 173.177 248.681 173.373 256.445ZM168.03 249.261C175.813 252.639 161.845 237.327 168.03 249.261ZM103.277 204.574C106.91 203.605 105.068 210.778 103.277 204.574ZM154.813 232.503C157.429 239.525 157.041 224.129 154.813 232.503ZM118.408 207.187C123.771 211.524 115.845 202.569 118.408 207.187ZM149.644 217.2C143.794 204.095 153.796 210.036 150.947 219.347L149.644 217.2ZM95.7693 181.272C93.1552 176.969 88.8295 164.352 90.2237 160.498C91.4747 166.775 103.563 187.5 96.1443 169.085C87.955 153.65 105.944 174.089 107.796 177.947C108.661 181.773 102.739 176.899 106.747 185.882C99.4321 175.656 102.432 191.53 95.7693 181.272ZM79.1232 169.796C82.9291 176.654 79.8047 159.794 79.1232 169.796ZM86.6122 172.379C92.665 182.901 90.1832 164.833 86.6122 172.379ZM68.5922 158.442C62.3946 152.274 57.9071 146.598 68.8862 154.614C73.1092 154.778 59.4864 141.704 69.9054 150.463C80.8519 152.459 75.3063 168.424 68.5922 158.442ZM78.0542 158.198C81.6579 154.627 79.9681 161.708 78.0542 158.198ZM83.8845 160.059C90.5084 164.353 78.4199 149.833 83.8845 160.059ZM72.3063 149C54.2879 132.952 94.9446 157.382 75.2472 151.969L72.3063 149ZM123.942 178.994C116.139 174.323 121.866 146.08 124.533 165.391C132.114 162.937 124.113 175.373 129.762 175.25C128.878 183.092 126.345 185.915 123.942 178.994ZM143.041 190.287C144.648 196.11 143.803 181.773 143.041 190.287ZM139.725 187.001C140.579 183.369 139.806 191.285 139.725 187.001ZM75.8353 143.729C64.2587 127.753 109.484 159.885 83.2544 147.779C80.5158 147.057 77.2108 146.802 75.8353 143.729ZM112.618 163.225C115.061 165.45 111.521 149.774 112.618 163.225ZM140.537 181.139C142.694 173.479 140.702 186.209 140.537 181.139ZM77.617 137.634C84.496 136.159 106.126 149.711 86.2652 141.5C84.0588 139.057 79.3472 140.168 77.617 137.634ZM136.7 167.079C137.436 153.324 140.814 158.868 136.731 169.054L136.7 167.079ZM82.7346 132.843C85.5417 128.73 75.2845 114.253 84.2082 127.652C88.0671 130.714 95.3694 132.781 88.9197 134.072C99.0633 143.017 86.4488 136.495 82.7346 132.843ZM133.779 162.786C135.715 147.118 135.491 171.964 133.779 162.786ZM76.8732 118.374C79.0205 117.456 78.0122 121.23 76.8732 118.374ZM90.1926 126.3C96.5099 134.316 93.6189 119.105 90.1926 126.3ZM127.747 147.188C128.458 151.207 127.715 144.43 127.747 147.188ZM125.568 142.376C130.423 149.182 120.359 129.515 125.568 142.376ZM122.372 133.94C125.344 140.615 121.501 128.628 122.372 133.94ZM127.582 125.475C124.001 119.175 132.102 97.6974 133.007 111.017C129.231 121.395 131.918 127.196 134.542 113.276C139.407 102.328 133.494 134.898 127.582 125.475ZM132.934 93.5367C134.493 91.6228 133.281 95.8442 132.934 93.5367ZM123.994 269.691C124.266 270.863 121.876 267.84 123.994 269.691ZM142.409 279.003C152.654 281.638 152.604 277.414 143.342 276.152C138.368 271.524 122.648 266.609 136.72 275.582C137.647 277.945 140.588 277.882 142.409 279.003ZM106.045 254.846C111.681 259.061 127.298 266.771 114.082 256.456C118.538 251.275 105.555 248.519 109.86 245.051C98.9015 238.343 101.209 238.943 108.894 239.158C95.7272 233.266 110.796 233.714 110.084 230.693C105.007 229.694 84.8601 221.737 96.7137 231.344C84.6672 225.207 93.8429 233.633 90.2019 232.747C77.8784 229.39 101.172 242.13 88.2476 238.965C95.3102 244.561 107.265 253.311 91.2289 244.886C89.1236 247.928 102.709 252.538 106.045 254.846ZM125.304 265.917C148.717 273.457 113.816 256.688 125.304 265.917ZM223.898 325.642C224.203 320.993 220.702 329.61 223.898 325.642ZM234.032 329.906C239.435 324.677 234.256 338.249 242.986 328.625C243.076 321.735 242.721 317.668 232.954 326.039C230.256 327.536 229.058 333.872 234.032 329.906ZM73.1699 228.884C71.5097 222.361 61.5388 222.389 73.1699 228.884ZM83.9841 235.973C79.965 229.31 69.6471 229.94 83.9841 235.973ZM145.552 273.101C151.567 278.444 173.157 277.019 152.85 273.764C149.846 269.316 133.761 270.385 145.552 273.101ZM230.175 325.371C239.424 317.607 221.212 328.83 230.175 325.371ZM249.416 338.586C249.476 336.094 245.428 339.676 249.416 338.586ZM249.448 335.096C259.692 324.251 239.527 335.737 249.448 335.096ZM46.5514 206.599C37.8223 194.145 41.1288 188.548 32.7046 178.373C31.105 170.59 18.2571 152.946 26.0605 171.637C33.2025 182.576 35.3171 199.505 46.5514 206.599ZM246.231 331.647C265.087 319.466 238.5 326.345 246.231 331.647ZM260.62 337.283C270.061 329.182 254.646 335.593 260.62 337.283ZM69.963 215.113C72.6611 211.094 62.9843 214.595 69.963 215.113ZM257.617 333.436C266.753 327.547 255.511 328.451 255.959 333.974L257.617 333.436ZM133.607 255.274C133.292 251.286 128.775 255.61 133.607 255.274ZM141.268 259.68C138.827 254.755 137.525 260.454 141.268 259.68ZM272.279 337.416C283.989 328.969 265.188 335.797 269.827 339.024L272.279 337.416ZM267.793 335.249C277.336 327.26 257.729 338.789 267.793 335.249ZM290.703 350.499C297.106 346.216 282.922 349.116 290.703 350.499ZM75.8353 212.214C84.412 214.136 110.133 233.346 94.9632 213.548C87.191 211.248 91.8513 192.251 83.925 195.609C89.2465 204.501 88.2973 208.275 77.1253 202.681C63.0964 195.822 69.241 206.07 71.9905 208.899C68.2436 209.753 76.9339 212.144 75.8338 212.213L75.8353 212.214ZM36.7331 181.336C38.2688 174.975 22.5797 146.374 29.3265 166.999C31.757 171.323 31.5049 179.512 36.7331 181.336ZM108.505 225.584C108.292 225.055 104.08 221.891 108.505 225.584ZM119.382 228.12C119.382 221.382 107.357 225.381 119.382 228.12ZM213.703 287.57C211.903 282.969 206.592 287.467 213.703 287.57ZM218.231 290.875C217.557 288.301 215.614 291.374 218.231 290.875ZM255.612 314.43C259.205 311.775 251.125 314.086 255.612 314.43ZM56.2593 186.321C66.5445 182.341 45.2382 183.481 56.2593 186.321ZM205.399 280.272C205.279 273.619 198.837 281.933 205.399 280.272ZM52.1981 176.846C58.8018 174.621 46.0831 175.384 52.1981 176.846ZM71.3681 186.136C71.2545 183.95 69.3437 186.971 71.3681 186.136ZM305.235 329.549C313.731 327.83 333.093 333.875 336.216 327.302C325.9 327.047 300.534 320.016 299.333 328.969L301.592 329.327L305.236 329.549H305.235ZM77.4614 187.673C77.617 180.926 72.2021 187.42 77.4614 187.673ZM27.0594 152.702C24.7705 139.849 18.3489 150.757 27.0594 152.702ZM39.0748 155.724C39.2289 151.593 28.0739 152.01 39.0748 155.724ZM45.943 159.102C44.3964 161.125 43.9591 157.493 45.943 159.102ZM89.1749 186.828C91.2117 184.955 84.3529 185.445 89.1749 186.828ZM41.3746 151.491C40.2061 141.785 27.4453 150.037 41.3746 151.491ZM16.7198 135.496C16.3728 131.019 14.3173 137.184 16.7198 135.496ZM20.392 132.731C19.7929 127.417 17.2379 133.4 20.392 132.731ZM40.6433 144.816C49.2106 141.458 25.0428 137.856 38.8928 144.186L40.6433 144.816ZM311.739 312.273C317.222 307.247 304.779 310.717 311.739 312.273ZM344.491 329.244C346.69 322.754 338.955 330.1 344.491 329.244ZM42.7128 134.204C43.6199 127.918 35.9177 135.455 42.7128 134.204ZM13.891 114.894C12.3443 106.022 12.5575 90.4434 27.3628 95.7042C7.60163 99.6315 41.0479 120.273 36.8249 103.974C45.137 104.384 53.0851 99.062 48.7189 107.128C65.1005 105.328 76.4469 91.1249 92.2667 93.1197C104.587 91.4828 118.059 90.2504 131.338 85.2852C142.255 84.501 152.764 72.7485 146.784 65.7792C131.898 64.5188 116.308 66.3798 99.8569 69.6568C81.6252 73.4409 65.0616 80.6437 46.6635 83.7386C28.7243 86.1504 50.2656 90.3718 45.1261 91.3178C35.7746 94.5637 56.2889 96.7514 43.9156 100.179C36.2756 98.726 28.3182 96.101 31.5843 88.0425C14.4091 90.28 -0.690292 97.4018 12.8843 114.882L13.8925 114.891L13.891 114.894ZM55.293 93.8105C59.3122 78.9772 76.8623 106.022 61.8858 95.7851C60.1042 94.4407 57.1524 93.3515 55.293 93.8105ZM56.0741 86.6156C61.8858 82.293 59.1581 89.0492 56.0741 86.6156ZM63.4511 86.7401C63.9833 79.9124 80.354 90.3516 66.1492 89.1923L63.4511 86.7401ZM73.5449 82.6805C77.2389 78.3641 74.6154 86.5051 73.5449 82.6805ZM76.131 80.9518C82.2756 73.5748 110.897 76.2386 89.9467 80.2267C84.3295 75.9943 80.0272 82.7194 76.131 80.9518ZM113.491 75.1915C132.06 82.3444 112.566 55.0335 113.491 75.1915ZM124.095 75.1292C127.969 64.9763 139.141 71.0509 125.895 73.0846C126.178 74.1738 125.498 78.3361 124.095 75.1292ZM38.5349 128.995C50.1116 121.903 26.2425 122.841 38.5349 128.995ZM47.1007 131.366C51.1619 127.053 38.2688 129.616 47.1007 131.366ZM21.8686 113.469C28.4816 108.381 14.0341 111.537 21.8686 113.469ZM363.821 327.393C364.014 321.491 358.764 330.047 363.821 327.393ZM329.074 303.675C330.061 296.89 324.609 304.266 329.074 303.675ZM373.375 329.683C382.626 329.714 401.405 326.801 381.28 326.812C378.116 327.302 362.875 327.201 373.375 329.683ZM54.6317 127.202C62.1208 126.693 66.3422 118.949 53.1753 119.388C32.7762 117.283 71.1736 126.379 50.5612 123.774C47.7947 125.606 54.4668 127.711 54.6317 127.202ZM61.2245 130.541C60.4403 125.738 58.9029 133.093 61.2245 130.541ZM69.0481 109.682C72.2939 105.652 64.5512 108.603 69.0481 109.682ZM44.1396 68.0587C57.5103 63.5215 75.784 58.4131 82.0936 70.2994C75.672 62.577 79.4997 54.965 85.5635 66.2693C94.1401 77.6966 98.4316 61.0707 92.8564 57.2337C99.2174 65.1288 106.44 68.8648 97.109 57.7347C107.254 45.5341 76.811 59.3311 69.893 59.188C66.5662 60.6818 35.5209 67.1034 44.1396 68.0587ZM51.9741 53.0636C59.5969 47.3157 78.3374 56.4914 66.3111 47.3437C65.1316 46.3074 39.9804 54.2835 51.9741 53.0636ZM79.7627 54.2119C88.6755 54.436 75.9178 42.226 86.5391 47.7607C84.7995 42.0642 74.1673 40.9952 68.9687 38.7173C66.0279 43.9267 74.9484 54.2835 79.7627 54.2119ZM56.8475 28.9876C59.9315 24.8066 51.4357 31.1146 56.8475 28.9876ZM68.2063 31.7028C82.5806 29.8014 64.5403 25.5177 65.3028 31.5519L68.2063 31.7028ZM46.998 15.119C36.8731 1.90229 66.0357 17.3378 55.7474 3.49875C47.0898 -3.38811 38.7776 11.2632 46.998 15.119ZM176.877 85.072C181.52 76.8486 157.72 73.9809 173.754 82.1592C175.23 82.6494 174.897 85.64 176.877 85.072ZM82.6366 391.326C81.6097 395.38 80.9733 402.185 80.7352 411.736C80.7352 413.612 79.8903 414.552 78.1958 414.552C76.5013 414.552 75.3219 413.732 74.6543 412.1C72.84 407.684 71.1222 404.604 69.4822 402.846C67.5496 400.792 64.9791 399.551 61.7722 399.127C58.3257 398.583 49.7397 398.31 36.0126 398.31C32.8695 398.31 30.8109 398.645 29.8462 399.312C29.2409 399.733 28.9391 400.641 28.9391 402.034V443.126C28.9391 444.517 29.8151 445.18 31.5656 445.123C36.9509 445.06 44.7511 444.693 54.9678 444.033C56.9657 443.788 58.3132 443.139 59.0072 442.079C59.7074 441.021 60.3874 438.289 61.0487 433.871C61.4688 431.452 62.8941 430.513 65.3121 431.061C67.366 431.484 68.2498 432.423 67.9464 433.871C66.2504 442.099 65.7027 452.803 66.308 465.987C66.3717 467.556 65.3744 468.405 63.3158 468.526C61.6197 468.709 60.5616 467.8 60.1415 465.803C58.5731 458.246 55.6494 454.207 51.3906 453.69C47.1271 453.18 40.1827 452.921 30.5713 452.921C29.4821 452.921 28.9391 453.312 28.9391 454.099V494.921C28.9391 497.946 30.0547 500.004 32.2907 501.089C34.049 501.996 37.8269 502.814 43.6293 503.54C46.5965 503.841 47.8927 505.145 47.5348 507.439C47.1692 509.435 44.5115 510.223 39.5479 509.799C25.2171 508.648 13.3915 508.71 4.08196 509.985C1.47877 510.342 0.182625 509.284 0.182625 506.809C0.182625 505.233 1.47877 504.327 4.08196 504.086C10.0088 503.418 12.9698 498.217 12.9698 488.484V410.827C12.9698 406.84 12.2572 403.772 10.8397 401.623C9.41593 399.476 6.76917 397.523 2.90407 395.771C0.482933 394.682 -0.422659 393.202 0.181069 391.326C0.482933 390.179 0.968405 389.541 1.6297 389.423C2.23499 389.239 3.84078 389.36 6.43619 389.787C10.2484 390.39 19.2312 390.694 33.3799 390.694C50.0742 390.694 64.4937 390.328 76.6522 389.605C80.7025 389.359 82.7315 389.693 82.7315 390.6C82.7315 390.846 82.7004 391.084 82.6366 391.326ZM141.464 506.48C141.464 508.9 140.103 509.958 137.383 509.655C129.043 508.867 118.698 508.986 106.363 510.014C103.881 510.26 102.357 510.196 101.779 509.838C101.203 509.473 100.92 508.477 100.92 506.838C100.92 505.391 102.564 504.168 105.86 503.166C109.16 502.172 110.803 499.192 110.803 494.235V412.137C110.803 407.236 110.092 403.638 108.675 401.338C107.251 399.04 104.757 397.257 101.19 395.99C99.3138 395.321 98.374 394.385 98.374 393.174C98.374 391.36 99.7355 390 102.457 389.093C106.571 387.762 110.836 385.71 115.252 382.925C118.881 380.746 121.18 379.662 122.143 379.662C124.379 379.662 125.503 381.199 125.503 384.285C125.503 384.047 125.381 387.07 125.136 393.356C124.96 399.342 124.898 405.238 124.96 411.048L125.318 492.053C125.318 495.744 126.226 498.422 128.041 500.085C129.855 501.747 132.973 502.85 137.383 503.393C140.103 503.694 141.464 504.722 141.464 506.479V506.48ZM223.511 501.131C223.511 502.404 221.198 504.321 216.574 506.888C211.945 509.46 208.24 510.745 205.461 510.745C203.099 510.745 201.016 509.599 199.201 507.299C197.387 505.001 196.113 503.854 195.389 503.854C194.846 503.854 191.974 505.094 186.769 507.57C181.573 510.051 176.339 511.293 171.078 511.293C166.121 511.293 161.975 509.838 158.65 506.941C155.022 503.733 153.207 499.379 153.207 493.874C153.207 483.411 165.182 475.914 189.132 471.379C193.24 470.591 195.331 468.928 195.387 466.389L195.573 460.582C195.937 450.665 191.552 445.708 182.418 445.708C179.817 445.708 177.353 448.032 175.021 452.688C172.698 457.35 169.352 459.856 164.999 460.222C160.041 460.701 157.56 458.616 157.56 453.961C157.56 451.056 161.25 447.675 168.627 443.8C176.37 439.75 183.811 437.721 190.947 437.721C203.22 437.721 209.298 443.56 209.178 455.232L208.813 492.602C208.757 496.534 210.42 498.498 213.803 498.498C214.47 498.498 215.742 498.349 217.613 498.045C219.491 497.743 220.581 497.591 220.884 497.591C222.635 497.591 223.511 498.775 223.511 501.131ZM195.573 480.452C195.635 478.938 195.282 477.936 194.525 477.458C193.769 476.974 192.58 476.878 190.947 477.181C176.37 479.783 169.082 484.531 169.082 491.425C169.082 498.38 172.861 501.856 180.42 501.856C183.445 501.856 186.563 501.283 189.763 500.137C193.517 498.802 195.389 497.202 195.389 495.324L195.573 480.452ZM290.954 490.695C290.954 497.106 288.483 502.205 283.558 505.983C278.63 509.764 271.904 511.653 263.374 511.653C257.691 511.653 252.003 511.049 246.32 509.838C241.419 508.749 238.577 507.753 237.792 506.846C237.306 505.995 237.067 501.858 237.067 494.417C237.067 491.211 237.792 489.546 239.245 489.428C240.695 489.245 241.937 490.034 242.964 491.784C247.498 499.709 254.817 503.672 264.917 503.672C273.44 503.672 277.705 500.705 277.705 494.776C277.705 492.181 276.74 490.001 274.801 488.249C272.683 486.252 268.577 483.923 262.467 481.262C253.635 477.333 247.738 473.887 244.776 470.92C241.57 467.777 239.968 463.544 239.968 458.22C239.968 451.686 242.478 446.61 247.498 442.982C252.153 439.471 258.384 437.721 266.182 437.721C271.084 437.721 275.557 438.11 279.614 438.899C283.967 439.686 286.235 440.651 286.417 441.802C286.896 445.185 287.898 450.086 289.41 456.5C289.592 457.281 288.741 457.918 286.871 458.402C284.873 458.825 283.544 458.49 282.877 457.406C278.101 449.601 272.055 445.702 264.734 445.702C256.45 445.702 252.306 448.362 252.306 453.684C252.306 456.65 253.426 459.005 255.662 460.757C257.66 462.27 262.345 464.632 269.724 467.839C277.465 471.164 282.726 474.158 285.511 476.817C289.14 480.262 290.954 484.892 290.954 490.695ZM397.675 506.571C397.675 508.687 396.252 509.807 393.41 509.927C389.176 509.989 383.639 510.291 376.811 510.834C373.422 511.502 371.002 511.08 369.554 509.568C359.997 499.287 351.89 488.521 345.237 477.27C344.695 476.305 344.001 475.821 343.151 475.821C342.125 475.821 340.343 476.728 337.804 478.544C334.956 480.112 333.539 482.353 333.539 485.25C333.539 487.311 333.595 490.272 333.721 494.148C333.842 498.014 334.805 500.552 336.619 501.763C337.891 502.614 340.828 503.275 345.419 503.761C348.261 504.125 349.685 505.183 349.685 506.935C349.685 508.327 349.458 509.191 349.004 509.518C348.552 509.851 347.354 509.927 345.419 509.745C339.372 509.203 329.154 509.505 314.761 510.652C311.132 510.954 309.165 510.5 308.863 509.291C308.744 508.87 308.68 508.264 308.68 507.476C308.68 505.606 310.527 504.181 314.219 503.219C317.544 502.366 319.206 498.467 319.206 491.513V412.227C319.206 407.27 318.724 403.823 317.751 401.889C316.423 399.407 313.637 397.472 309.405 396.081C307.413 395.419 306.413 394.481 306.413 393.271C306.413 391.512 307.836 390.152 310.676 389.189C315.248 387.66 319.606 385.556 323.647 382.928C326.975 380.754 329.034 379.663 329.815 379.663C332.298 379.663 333.539 381.232 333.539 384.383C333.539 383.955 333.507 386.953 333.444 393.361C333.378 399.288 333.349 405.215 333.356 411.143L333.539 467.927C333.539 469.502 333.96 470.283 334.805 470.283C335.712 470.283 337.105 469.502 338.981 467.927C344.001 463.995 350.169 458.856 357.484 452.506C358.939 450.995 359.662 449.784 359.662 448.877C359.662 447.247 357.213 446.092 352.318 445.432C350.202 445.185 349.2 444.009 349.318 441.891C349.501 439.775 350.561 438.868 352.494 439.169C356.854 439.776 363.204 440.109 371.544 440.171C377.352 440.227 383.128 440.26 388.875 440.26C390.745 440.322 391.685 441.438 391.685 443.618C391.685 445.672 390.203 446.792 387.242 446.976C382.581 447.152 378.196 448.21 374.089 450.15C368.343 452.746 362.202 457.312 355.669 463.846C355.19 464.21 354.944 464.663 354.944 465.206C354.944 466.051 355.971 468.08 358.032 471.285C365.591 482.776 372.728 491.451 379.437 497.32C383.734 501.008 387.753 502.852 391.501 502.852C394.286 502.852 396.01 503.048 396.672 503.443C397.341 503.837 397.675 504.881 397.675 506.571Z" fill="black"/>
</svg>
