<svg width="512" height="512" viewBox="0 0 512 512" fill="none" xmlns="http://www.w3.org/2000/svg">
<path d="M498.968 233.512L278.5 13.0561C265.812 0.360058 245.22 0.360058 232.512 13.0561L186.74 58.8401L244.812 116.912C258.312 112.356 273.784 115.412 284.54 126.168C295.352 136.992 298.388 152.596 293.712 166.14L349.68 222.116C363.22 217.448 378.848 220.464 389.656 231.296C404.776 246.404 404.776 270.896 389.656 286.012C374.536 301.132 350.052 301.132 334.924 286.012C323.556 274.636 320.744 257.936 326.504 243.928L274.312 191.732L274.304 329.096C277.992 330.916 281.468 333.348 284.54 336.408C299.656 351.516 299.656 376 284.54 391.14C269.424 406.248 244.924 406.248 229.824 391.14C214.712 376.004 213.472 351.52 228.58 336.408C232.316 332.676 236 329.856 240 327.968V189.332C236 187.444 232.32 184.644 228.576 180.888C217.132 169.448 214.992 152.648 220.864 138.584L163.932 81.3321L12.916 232.492C0.216002 245.2 0.296002 265.792 12.996 278.492L233.5 498.948C246.192 511.644 266.8 511.644 279.512 498.948L498.952 279.516C511.652 266.812 511.664 246.208 498.968 233.512Z" fill="#F34F29"/>
</svg>

