<svg width="37" height="37" viewBox="0 0 37 37" fill="none" xmlns="http://www.w3.org/2000/svg">
<ellipse cx="18.9515" cy="20" rx="16" ry="16.5" fill="#D9D9D9"/>
<path d="M9.22943 31.0147C10.1703 31.7198 11.6569 32.2358 13.9277 31.8693C13.9316 32.476 13.9366 33.0446 13.9407 33.5131C13.9452 34.0226 13.9486 34.4137 13.9486 34.6066C13.9486 34.739 13.9016 34.8481 13.8349 34.9089C13.7849 34.9545 13.6567 35.0349 13.3456 34.9839C6.43207 32.6672 1.45154 26.1368 1.45154 18.4436C1.45154 8.80938 9.26295 1 18.8952 1C28.5291 1 36.3388 8.80979 36.338 18.4419C36.338 26.1335 31.3629 32.6619 24.4522 34.9808C24.1321 35.0366 24.0048 34.9548 23.9575 34.9116C23.8928 34.8525 23.8451 34.7431 23.8451 34.6058C23.8451 34.4115 23.8473 34.0709 23.8503 33.6135C23.8518 33.38 23.8535 33.1161 23.8552 32.8256C23.8603 31.9681 23.8654 30.8839 23.8654 29.6822C23.8654 28.4295 23.5635 27.4436 23.1154 26.7347C24.8643 26.461 26.6475 25.9194 28.0642 24.7338C29.7532 23.3202 30.8416 21.0612 30.8416 17.5061C30.8416 15.5342 30.1771 13.8908 29.0665 12.5817C29.322 11.7966 29.6798 10.0236 28.7839 7.75685L28.6969 7.53661L28.4713 7.46443L28.3189 7.94063C28.4713 7.46443 28.4708 7.46427 28.4703 7.46411L28.4693 7.46379L28.4672 7.46313L28.4625 7.46169L28.4514 7.45843C28.4432 7.4561 28.4335 7.45349 28.4223 7.45068C28.3998 7.44507 28.3712 7.43871 28.3364 7.43242C28.2667 7.41984 28.1725 7.40761 28.0531 7.40216C27.8139 7.39125 27.4764 7.40761 27.0351 7.50075C26.1857 7.68003 24.9558 8.14279 23.3 9.23846C21.8848 8.86846 20.3842 8.68337 18.8967 8.67636L18.8921 8.67638C17.405 8.68296 15.9051 8.86801 14.4918 9.23839C12.8344 8.1425 11.6032 7.67968 10.753 7.50037C10.3113 7.40721 9.97356 7.39084 9.73426 7.40175C9.61477 7.40719 9.5205 7.41941 9.45077 7.43198C9.41593 7.43826 9.38731 7.44462 9.36482 7.45023C9.35358 7.45303 9.34388 7.45565 9.33571 7.45797L9.32461 7.46122L9.31992 7.46266L9.31779 7.46332L9.31678 7.46364C9.31629 7.4638 9.31581 7.46395 9.46807 7.94021L9.31581 7.46395L9.08989 7.53618L9.0029 7.75684C8.10934 10.0236 8.46754 11.7969 8.72309 12.5817C7.615 13.8906 6.94532 15.5332 6.94532 17.5056C6.94532 21.0529 8.03176 23.3125 9.71642 24.7304C11.1314 25.9213 12.9129 26.4694 14.6599 26.7478C14.3791 27.1959 14.1571 27.7542 14.0324 28.419C13.5466 28.6077 12.8535 28.7947 12.1311 28.7302C11.3119 28.6571 10.4098 28.259 9.69363 27.0335L9.69189 27.0304L9.68034 27.0104C9.67073 26.9939 9.65726 26.9713 9.63995 26.9435C9.60536 26.8879 9.55526 26.8111 9.48975 26.7196C9.35919 26.5374 9.16489 26.2937 8.90726 26.045C8.39543 25.5508 7.60286 25.0082 6.54362 24.9338L6.52938 24.9328L6.51511 24.9326L6.5086 25.4326C6.51511 24.9326 6.51495 24.9326 6.51478 24.9326L6.51441 24.9326L6.51356 24.9326L6.51135 24.9326L6.50503 24.9325L6.48512 24.9326C6.46879 24.9327 6.44638 24.9331 6.41922 24.9341C6.36534 24.9359 6.29047 24.9401 6.20585 24.9494C6.05652 24.9658 5.80087 25.0053 5.58926 25.126C5.47807 25.1894 5.33286 25.3013 5.25106 25.4894C5.16253 25.693 5.18409 25.9016 5.25759 26.0766C5.3838 26.3772 5.69278 26.6547 6.10403 26.9359L6.13739 26.9587L6.17004 26.9741C6.17017 26.9741 6.17032 26.9742 6.17048 26.9743C6.17358 26.9759 6.18083 26.9797 6.19186 26.986C6.21393 26.9985 6.25113 27.0207 6.30061 27.0546C6.39949 27.1222 6.54771 27.2362 6.7224 27.4114C7.06939 27.7593 7.52766 28.3554 7.90976 29.3229L7.91079 29.3259C7.91433 29.3358 7.91908 29.3488 7.92513 29.3645C7.93722 29.3959 7.95456 29.4384 7.9779 29.4902C8.02454 29.5935 8.09549 29.7344 8.19702 29.8972C8.39996 30.2224 8.72732 30.6385 9.22943 31.0147Z" fill="black" stroke="black"/>
</svg>
