<svg width="512" height="512" viewBox="0 0 512 512" fill="none" xmlns="http://www.w3.org/2000/svg">
<path d="M71.36 460.821L30.272 0H481.728L440.597 460.757L255.723 512L71.36 460.821Z" fill="#E44D26"/>
<path d="M256 472.832L405.376 431.403L440.533 37.6747H256V472.832Z" fill="#F16529"/>
<path d="M256 208.597H181.227L176.043 150.72H256V94.1866H114.283L115.627 109.355L129.515 265.088H256V208.597ZM256 355.371L255.744 355.435L192.811 338.432L188.779 293.355H132.053L139.968 382.101L255.744 414.251L256 414.165V355.371Z" fill="#EBEBEB"/>
<path d="M255.808 208.597V265.109H325.419L318.848 338.411L255.808 355.413V414.208L371.669 382.101L372.523 372.544L385.813 223.765L387.179 208.576H371.947L255.808 208.597ZM255.808 94.1866V150.72H392.32L393.451 138.005L396.032 109.355L397.376 94.1866H255.808Z" fill="white"/>
<path d="M256 511.915L255.723 512H256V511.915Z" fill="#DEDEDE"/>
<path d="M256 150.72H176.043L181.205 208.597H255.787H256V150.72ZM256 0H30.272L71.36 460.821L255.723 512L256 511.915V414.165L255.744 414.251L139.968 382.101L132.053 293.355H188.779L192.811 338.432L255.744 355.435L255.808 355.413L256 355.371V265.109H129.515L115.627 109.376L114.283 94.1867H255.808H256V0Z" fill="#C64321"/>
<path d="M188.779 293.355H132.053L139.968 382.101L255.744 414.251L256 414.165L255.808 414.208V355.413L255.744 355.435L192.811 338.432L188.779 293.355ZM255.808 94.1866H114.283L115.627 109.355L129.515 265.088H256H255.808V208.597H181.227L176.043 150.72H256H255.808V94.1866Z" fill="#CDCDCD"/>
<path d="M256 355.371L255.808 355.413V414.208L256 414.165V355.371ZM256 208.597H255.808V265.109H256V208.597ZM256 94.1866H255.808V150.72H256V94.1866Z" fill="#DEDEDE"/>
</svg>
