<svg width="36" height="35" viewBox="0 0 36 35" fill="none" xmlns="http://www.w3.org/2000/svg">
<g clip-path="url(#clip0_132_23)">
<path d="M1.37891 0.38501H35.6089V34.6153H1.37891V0.38501Z" fill="#F0DB4F"/>
<path d="M32.8075 26.4513C32.5568 24.8897 31.5385 23.578 28.5222 22.3549C27.4744 21.8734 26.3063 21.5286 25.9582 20.7345C25.8346 20.2724 25.8182 20.0121 25.8964 19.7324C26.1209 18.8246 27.2045 18.5415 28.0634 18.8019C28.6166 18.9872 29.1402 19.4135 29.456 20.0936C30.9331 19.1371 30.9301 19.1434 31.9615 18.486C31.5839 17.9006 31.3824 17.6304 31.1352 17.38C30.2468 16.3877 29.0363 15.8766 27.1004 15.9157L26.0919 16.0462C25.1256 16.2903 24.2047 16.7976 23.6646 17.4776C22.0442 19.3162 22.5063 22.534 24.4781 23.8583C26.4206 25.3162 29.2742 25.6479 29.6387 27.0113C29.9933 28.6803 28.412 29.2206 26.8403 29.0287C25.682 28.7878 25.0378 28.1991 24.3414 27.1286C23.0595 27.8704 23.0595 27.8704 21.7415 28.6284C22.0541 29.3117 22.3825 29.621 22.9064 30.2129C25.3859 32.728 31.5907 32.6044 32.7036 28.7976C32.7488 28.6669 33.0484 27.7952 32.8075 26.4513ZM19.9874 16.1172H16.7857L16.7726 24.3947C16.7726 26.1551 16.8637 27.769 16.5774 28.2636C16.109 29.2365 14.8952 29.1159 14.342 28.9272C13.779 28.6505 13.4927 28.2571 13.1611 27.7009C13.07 27.5412 13.0016 27.4176 12.9787 27.408L10.3755 29.0022C10.8084 29.8906 11.4461 30.6617 12.2628 31.1626C13.4829 31.8949 15.1227 32.1194 16.8377 31.7256C17.9539 31.4005 18.9169 30.727 19.4211 29.7019C20.1501 28.3579 19.9937 26.7313 19.9872 24.9321C20.0036 21.9967 19.9874 19.0619 19.9874 16.1172Z" fill="#323330"/>
</g>
<defs>
<clipPath id="clip0_132_23">
<rect width="35" height="35" fill="white" transform="translate(0.993896)"/>
</clipPath>
</defs>
</svg>
