<svg width="35" height="35" viewBox="0 0 35 35" fill="none" xmlns="http://www.w3.org/2000/svg">
<rect x="2.16205" y="1" width="30" height="32" fill="#D9D9D9"/>
<path d="M32.3791 0.0002447H2.73451C2.40128 -0.00438332 2.0704 0.056677 1.76077 0.179939C1.45113 0.303201 1.16881 0.486249 0.929933 0.718631C0.691051 0.951012 0.500286 1.22818 0.368531 1.53429C0.236776 1.8404 0.166613 2.16948 0.162048 2.50271V32.4973C0.166613 32.8305 0.236776 33.1596 0.368531 33.4657C0.500286 33.7718 0.691051 34.049 0.929933 34.2814C1.16881 34.5137 1.45113 34.6968 1.76077 34.8201C2.0704 34.9433 2.40128 35.0044 2.73451 34.9998H32.3791C32.7123 35.0044 33.0432 34.9433 33.3528 34.8201C33.6625 34.6968 33.9448 34.5137 34.1837 34.2814C34.4226 34.049 34.6133 33.7718 34.7451 33.4657C34.8768 33.1596 34.947 32.8305 34.9516 32.4973V2.50271C34.947 2.16948 34.8768 1.8404 34.7451 1.53429C34.6133 1.22818 34.4226 0.951012 34.1837 0.718631C33.9448 0.486249 33.6625 0.303201 33.3528 0.179939C33.0432 0.056677 32.7123 -0.00438332 32.3791 0.0002447ZM10.7144 29.2948H5.46447V13.5451H10.7144V29.2948ZM8.08944 11.3401C7.36541 11.3401 6.67103 11.0525 6.15906 10.5405C5.6471 10.0285 5.35948 9.33416 5.35948 8.61012C5.35948 7.88609 5.6471 7.19172 6.15906 6.67975C6.67103 6.16778 7.36541 5.88016 8.08944 5.88016C8.4739 5.83656 8.86323 5.87466 9.23195 5.99196C9.60067 6.10926 9.94045 6.30311 10.2291 6.56084C10.5177 6.81856 10.7486 7.13433 10.9067 7.48748C11.0648 7.84063 11.1465 8.2232 11.1465 8.61012C11.1465 8.99705 11.0648 9.37961 10.9067 9.73276C10.7486 10.0859 10.5177 10.4017 10.2291 10.6594C9.94045 10.9171 9.60067 11.111 9.23195 11.2283C8.86323 11.3456 8.4739 11.3837 8.08944 11.3401ZM29.6491 29.2948H24.3992V20.8425C24.3992 18.725 23.6467 17.3425 21.7392 17.3425C21.1489 17.3468 20.5741 17.532 20.0922 17.873C19.6104 18.2141 19.2446 18.6947 19.0443 19.25C18.9073 19.6613 18.848 20.0945 18.8693 20.5275V29.2773H13.6194C13.6194 29.2773 13.6194 14.9625 13.6194 13.5276H18.8693V15.75C19.3462 14.9225 20.0399 14.2407 20.8755 13.7782C21.7112 13.3156 22.6572 13.0898 23.6117 13.1251C27.1117 13.1251 29.6491 15.3825 29.6491 20.23V29.2948Z" fill="#030303"/>
</svg>
