<svg width="35" height="25" viewBox="0 0 35 25" fill="none" xmlns="http://www.w3.org/2000/svg">
<path d="M9.52581 23.3015C9.31289 23.3015 9.12331 23.2884 8.96289 23.2636V23.9709C9.29247 24.1021 9.56518 24.1678 9.78831 24.1678C10.6239 24.1678 11.3939 23.6573 12.0968 22.6321C12.9952 21.3051 13.7214 19.1744 14.2727 16.2461H12.9893C12.784 17.9508 12.3752 19.6247 11.7716 21.2321C11.8125 20.9273 11.7118 20.3921 11.4727 19.6251L10.4125 16.2461H9.08539L10.5641 20.7655C10.7873 21.4436 10.8996 21.8957 10.8996 22.1173C10.8996 22.4367 10.7566 22.7255 10.4693 22.9836C10.2302 23.1936 9.91664 23.3015 9.52581 23.3015Z" fill="#105E86"/>
<path d="M28.4113 14.1709V22.0882H32.2467V21.114H29.7019V14.1709H28.4113Z" fill="#DE8A03"/>
<path d="M1.51667 15.7736H1.53125L3.57292 22.0882H4.60104L6.65729 15.7736H6.66896C6.89331 17.8716 7.02469 19.9785 7.06271 22.0882H8.41896C8.33548 19.4407 8.1272 16.7987 7.79479 14.1709H6.19792L4.23354 19.9896H4.22187L2.275 14.1709H0.597917C0.267173 16.7984 0.0676195 19.4408 0 22.0882H1.23229C1.27167 19.7724 1.36646 17.668 1.51667 15.7736Z" fill="#105E86"/>
<path d="M27.2402 17.9815C27.2402 15.3623 26.1931 14.0498 24.0975 14.0498C23.0708 14.0498 22.2688 14.3823 21.6912 15.0473C21.0642 15.775 20.7492 16.8454 20.7492 18.2615C20.7492 19.6527 21.0263 20.675 21.5863 21.3254C22.0967 21.9131 22.8652 22.2063 23.8948 22.2063C24.2798 22.2063 24.6327 22.1596 24.9521 22.0663L26.8844 23.1717L27.4094 22.2821H27.405L25.9233 21.5661C26.0546 21.4567 26.1815 21.34 26.2952 21.2088C26.9267 20.4825 27.2402 19.4063 27.2402 17.9815ZM24.0275 21.2263C23.3785 21.2263 22.9046 20.9871 22.6013 20.5102L22.6042 20.5029C22.276 19.9881 22.1127 19.1569 22.1127 18.0179C22.1127 16.0229 22.731 15.0254 23.9648 15.0254C24.6108 15.0254 25.0877 15.2646 25.3896 15.7415C25.7163 16.2592 25.8796 17.0817 25.8796 18.209C25.8796 20.2186 25.2613 21.2263 24.0275 21.2263ZM19.25 18.2265C19.25 18.2265 18.0921 17.5746 17.519 17.2669C16.889 16.9227 16.5477 16.5188 16.5477 16.0506C16.5489 15.9065 16.5819 15.7645 16.6444 15.6346C16.707 15.5048 16.7974 15.3904 16.9094 15.2996C17.131 15.1013 17.4504 15.005 17.8631 15.005C18.3721 15.005 18.8898 15.1158 19.4148 15.3346L19.7254 14.6536C19.1165 14.2633 18.4069 14.0596 17.6838 14.0673C16.9546 14.0673 16.364 14.2627 15.9046 14.6608C15.4481 15.0546 15.2192 15.5694 15.2192 16.214C15.2192 16.9883 15.5254 17.4594 16.1408 17.8998C16.1408 17.8998 17.271 18.5356 17.8369 18.8404C18.4465 19.1773 18.7819 19.5783 18.7819 20.0508C18.7843 20.2219 18.7459 20.391 18.6698 20.5442C18.5937 20.6974 18.4821 20.8303 18.3444 20.9317C18.0673 21.1417 17.6867 21.2467 17.2025 21.2467C16.6819 21.2467 16.1058 21.0921 15.4671 20.7771L15.1215 21.4581C15.8638 21.9496 16.6235 22.1961 17.4154 22.1961C18.2627 22.1961 18.9321 21.9817 19.4338 21.5515C19.9354 21.1227 20.1863 20.57 20.1863 19.8963L20.195 19.9006C20.195 19.1292 19.8815 18.664 19.25 18.2265Z" fill="#DE8A03"/>
<path d="M23.924 3.19701C23.7563 3.19701 23.6425 3.21743 23.5244 3.24368V3.26263H23.5448C23.6236 3.41138 23.7577 3.52076 23.8569 3.65347C23.9357 3.80659 24.0027 3.95972 24.0815 4.11138L24.1019 4.08951C24.239 3.99472 24.3061 3.84305 24.3061 3.61263C24.2477 3.54555 24.239 3.47847 24.1894 3.41284C24.1311 3.31659 24.0057 3.26993 23.9269 3.19409L23.924 3.19701Z" fill="#105E86"/>
<path d="M34.5552 14.0353C34.2677 13.664 33.926 13.3381 33.5417 13.0684C33.2296 12.8598 32.5471 12.5667 32.4188 12.2167L32.3998 12.1963C32.6127 12.1773 32.8665 12.1015 33.0706 12.0446C33.4017 11.9586 33.705 11.9776 34.0477 11.893C34.2023 11.8551 34.3583 11.8069 34.5144 11.7588V11.6728C34.3394 11.5007 34.2081 11.2673 34.0273 11.1069C33.5218 10.6732 32.9835 10.2793 32.4173 9.9286C32.1111 9.7361 31.7231 9.6136 31.4008 9.45026C31.2842 9.39339 31.0888 9.36422 31.0217 9.26797C30.8467 9.05943 30.7446 8.78089 30.6206 8.53152C30.3406 8.00506 30.0665 7.42172 29.8229 6.8661C29.6479 6.49131 29.5415 6.11797 29.3271 5.77381C28.3208 4.14631 27.2315 3.15902 25.5558 2.19506C25.1956 1.99527 24.764 1.90922 24.3075 1.80277C24.064 1.7911 23.8204 1.7736 23.5783 1.76339C23.4179 1.69631 23.2633 1.51402 23.1263 1.42652C22.5721 1.08235 21.1371 0.338598 20.7288 1.32297C20.4663 1.94422 21.1181 2.55672 21.3442 2.87172C21.5119 3.09047 21.7233 3.34131 21.84 3.58776C21.9086 3.75401 21.9275 3.92464 21.9961 4.09818C22.1506 4.51964 22.2979 4.98777 22.5021 5.38297C22.6086 5.58277 22.7252 5.79422 22.8623 5.9736C22.9411 6.0786 23.0752 6.12672 23.1058 6.29881C22.9688 6.49422 22.96 6.77714 22.8813 7.01485C22.5313 8.09839 22.6683 9.4386 23.1642 10.2363C23.3202 10.474 23.6921 11.0005 24.1894 10.7992C24.6269 10.6271 24.5306 10.0832 24.6561 9.60339C24.6852 9.48818 24.6663 9.41235 24.7261 9.33506V9.35693C24.8631 9.62672 25.0002 9.88193 25.1256 10.1517C25.4261 10.6213 25.9511 11.1084 26.39 11.4336C26.6233 11.6057 26.8086 11.9032 27.1002 12.0096V11.9805H27.0784C27.0156 11.8973 26.9325 11.858 26.8538 11.7894C26.669 11.6119 26.4984 11.4203 26.3433 11.2163C25.933 10.6658 25.5686 10.0824 25.254 9.47214C25.0936 9.17172 24.9594 8.84797 24.8311 8.55193C24.7727 8.43818 24.7727 8.2661 24.675 8.20777C24.5292 8.41631 24.3148 8.5986 24.2083 8.85672C24.0231 9.26943 24.0042 9.77547 23.9342 10.3034C23.8948 10.3136 23.9138 10.3034 23.8948 10.3238C23.5827 10.2494 23.4763 9.93152 23.3596 9.66464C23.0679 8.98506 23.0198 7.89277 23.2721 7.10818C23.3406 6.90839 23.6323 6.27547 23.5156 6.08297C23.4544 5.90068 23.2619 5.79714 23.1554 5.64985C23.0189 5.45822 22.9016 5.25354 22.8054 5.03881C22.5721 4.5036 22.4554 3.91006 22.2017 3.37485C22.085 3.12693 21.8808 2.86735 21.7146 2.63985C21.5294 2.38172 21.3252 2.20089 21.1779 1.89464C21.1298 1.78964 21.0613 1.6161 21.1386 1.50235C21.159 1.42506 21.1998 1.39443 21.2756 1.37402C21.404 1.27047 21.7642 1.4061 21.8911 1.46297C22.2513 1.60589 22.5546 1.74006 22.8565 1.94131C22.9936 2.0361 23.1408 2.21693 23.3158 2.26506H23.52C23.8321 2.33214 24.1836 2.28547 24.4752 2.37006C24.9929 2.53339 25.4596 2.7711 25.8781 3.02922C27.1628 3.83254 28.2119 4.96162 28.9188 6.30172C29.0354 6.52193 29.0865 6.72464 29.1929 6.9536C29.3971 7.4261 29.6494 7.90297 29.8565 8.35943C30.0606 8.81006 30.2575 9.27089 30.5506 9.64422C30.6965 9.84402 31.2827 9.94902 31.5452 10.054C31.7392 10.1401 32.0411 10.2188 32.2161 10.3238C32.5515 10.5236 32.8781 10.754 33.1931 10.9742C33.3536 11.0836 33.8392 11.3228 33.8684 11.5153C33.0881 11.4948 32.4829 11.5721 31.9769 11.7851C31.8311 11.8419 31.5977 11.8419 31.5773 12.0242C31.6575 12.1001 31.6692 12.224 31.7377 12.3305C31.8544 12.5215 32.0556 12.7782 32.2423 12.9138C32.4465 13.0713 32.6506 13.223 32.865 13.3571C33.2442 13.5861 33.6744 13.7217 34.0463 13.9521C34.2577 14.0863 34.4736 14.2569 34.6879 14.3998C34.7944 14.4713 34.8629 14.6011 35 14.6463V14.6186C34.9329 14.5326 34.9125 14.4086 34.8469 14.3123C34.7492 14.2161 34.6515 14.1301 34.5552 14.0353Z" fill="#105E86"/>
</svg>
