<svg width="28" height="29" viewBox="0 0 28 29" fill="none" xmlns="http://www.w3.org/2000/svg">
<path d="M13.8301 0.34885C12.6757 0.354319 11.5737 0.452483 10.6036 0.624202C7.74613 1.12897 7.22769 2.18553 7.22769 4.13432V6.70764H13.9797V7.56541H4.69347C2.73129 7.56541 1.013 8.74475 0.475426 10.9891C-0.14473 13.5608 -0.172074 15.1659 0.475426 17.8513C0.955309 19.8504 2.10156 21.2745 4.06402 21.2745H6.38578V18.1896C6.38578 15.9608 8.31379 13.995 10.6038 13.995H17.3482C19.2256 13.995 20.724 12.449 20.724 10.5639V4.13459C20.724 2.30448 19.1802 0.929905 17.3482 0.624475C16.1877 0.431428 14.9843 0.343655 13.8301 0.34885ZM10.1786 2.4185C10.8759 2.4185 11.4457 2.99737 11.4457 3.7094C11.4457 4.41842 10.8762 4.99182 10.1786 4.99182C9.47863 4.99182 8.91179 4.41842 8.91179 3.7094C8.91152 2.99737 9.47863 2.4185 10.1786 2.4185Z" fill="url(#paint0_linear_132_20)"/>
<path d="M21.5659 7.56546V10.564C21.5659 12.8882 19.595 14.8446 17.3479 14.8446H10.6035C8.75618 14.8446 7.22766 16.4259 7.22766 18.276V24.7059C7.22766 26.5355 8.81852 27.612 10.6035 28.1367C12.7407 28.7648 14.7904 28.8785 17.3479 28.1367C19.0475 27.6442 20.7237 26.6539 20.7237 24.7059V22.1323H13.9797V21.2742H24.1001C26.0623 21.2742 26.794 19.9057 27.4765 17.8511C28.1814 15.736 28.1511 13.7019 27.4765 10.9889C26.9914 9.03519 26.0653 7.56519 24.1001 7.56519L21.5659 7.56546ZM17.7725 23.8478C18.4728 23.8478 19.0396 24.4212 19.0396 25.1308C19.0396 25.8423 18.4725 26.4212 17.7725 26.4212C17.0752 26.4212 16.5057 25.8423 16.5057 25.1308C16.5057 24.4212 17.0752 23.8478 17.7725 23.8478Z" fill="url(#paint1_linear_132_20)"/>
<defs>
<linearGradient id="paint0_linear_132_20" x1="-0.676873" y1="1.15348" x2="14.8964" y2="14.4343" gradientUnits="userSpaceOnUse">
<stop stop-color="#5A9FD4"/>
<stop offset="1" stop-color="#306998"/>
</linearGradient>
<linearGradient id="paint1_linear_132_20" x1="20.7557" y1="22.6899" x2="15.1708" y2="14.8581" gradientUnits="userSpaceOnUse">
<stop stop-color="#FFD43B"/>
<stop offset="1" stop-color="#FFE873"/>
</linearGradient>
</defs>
</svg>
